<svg width="136" height="41" viewBox="0 0 136 41" fill="none" xmlns="http://www.w3.org/2000/svg">
<g clip-path="url(#clip0_2109_23011)">
<path d="M28.7793 16.2452L30.152 21.3549C30.4223 22.3428 30.716 23.7408 30.716 23.7408H30.765C30.765 23.7408 31.0481 22.3145 31.3098 21.2764L32.5932 16.2277L35.924 16.2146L37.2968 21.2524C37.5671 22.3123 37.8864 23.7364 37.8864 23.7364H37.9353C37.9353 23.7364 38.2439 22.3101 38.5057 21.32L39.8614 16.1972L43.7478 16.1797L40.0083 28.5517L36.3157 28.567L34.845 22.9753C34.5747 22.0113 34.3044 20.7574 34.3044 20.7574H34.2554C34.2554 20.7574 33.9702 22.0135 33.7085 22.9796L32.2591 28.5844L28.6154 28.5997L24.7759 16.2604L28.7793 16.2452Z" fill="#4E493A"/>
<path d="M45.2417 11.2772L49.177 11.2597L49.1897 14.4459L45.2545 14.4634L45.2417 11.2772ZM45.2609 16.1753L49.1961 16.1579L49.2451 28.5124L45.3098 28.5299L45.2609 16.1753Z" fill="#4E493A"/>
<path d="M51.6821 16.1492L55.4727 16.1339L55.4791 17.8241H55.5514C56.4623 16.4916 57.6436 15.7632 59.3569 15.7566C62.0598 15.7457 63.6603 17.6692 63.6731 20.4193L63.705 28.4557L59.7698 28.4732L59.74 21.2327C59.7357 19.9308 59.0802 19.0388 57.8011 19.0453C56.4985 19.0519 55.6323 20.1401 55.6387 21.6602L55.6664 28.4884L51.7311 28.5059L51.6821 16.1514V16.1492Z" fill="#4E493A"/>
<path d="M65.5118 22.2447C65.4969 18.5525 68.068 15.7174 71.833 15.7021C73.5952 15.6956 74.9978 16.267 76.062 17.2287C77.539 18.5743 78.2733 20.7181 78.2584 23.2283L69.3769 23.2653C69.6259 24.9293 70.5453 25.963 72.1629 25.9565C73.2015 25.9521 73.874 25.4898 74.2103 24.7178L78.0477 24.7025C77.7859 25.8126 77.0665 26.879 75.9832 27.6314C74.9488 28.3598 73.6953 28.7742 72.1267 28.783C68.0467 28.8003 65.5267 25.987 65.5118 22.2469V22.2447ZM74.2678 20.9013C74.1167 19.4292 73.1951 18.4936 71.916 18.498C70.4198 18.5045 69.6514 19.4488 69.3918 20.9209L74.2678 20.9013Z" fill="#4E493A"/>
<path d="M81.4915 28.4536C82.6141 28.4536 83.5241 27.5211 83.5241 26.3709C83.5241 25.2206 82.6141 24.2881 81.4915 24.2881C80.369 24.2881 79.459 25.2206 79.459 26.3709C79.459 27.5211 80.369 28.4536 81.4915 28.4536Z" fill="#4E493A"/>
<path d="M84.4581 22.212C84.4432 18.4958 86.9908 15.6607 90.9006 15.6454C94.2548 15.6302 96.4108 17.5777 96.7854 20.3495L92.9949 20.3648C92.748 19.2547 92.069 18.5351 90.9602 18.5394C89.2703 18.546 88.4317 19.9504 88.4402 22.1945C88.4488 24.3907 89.3001 25.7864 90.99 25.7799C92.2201 25.7755 92.9672 25.0471 93.1289 23.647L96.8939 23.6317C96.8088 26.4799 94.5485 28.7087 91.0496 28.7241C87.0675 28.7415 84.473 25.9282 84.4581 22.212Z" fill="#4E493A"/>
<path d="M98.1901 22.1531C98.1752 18.4369 100.819 15.6018 104.777 15.5843C108.759 15.5669 111.377 18.3802 111.392 22.0964C111.407 25.8126 108.813 28.6477 104.828 28.6652C100.87 28.6826 98.2029 25.8693 98.188 22.1531H98.1901ZM107.41 22.1139C107.402 19.8698 106.478 18.3541 104.765 18.3606C103.051 18.3672 102.164 19.8916 102.172 22.1357C102.181 24.3798 103.081 25.8715 104.794 25.8649C106.508 25.8584 107.419 24.358 107.41 22.1139Z" fill="#4E493A"/>
<path d="M113.299 15.8875L117.064 15.8723L117.071 17.6344H117.143C117.909 16.352 119.091 15.5015 120.876 15.495C122.494 15.4884 123.728 16.328 124.36 17.6518H124.409C125.369 16.1514 126.693 15.471 128.287 15.4622C131.088 15.4513 132.495 17.3509 132.505 20.1249L132.537 28.1613L128.602 28.1788L128.572 20.8424C128.566 19.5143 128.008 18.7444 126.825 18.751C125.569 18.7553 124.873 19.7978 124.88 21.2699L124.907 28.1962L120.972 28.2137L120.942 20.8773C120.936 19.5492 120.378 18.7793 119.195 18.7859C118.011 18.7924 117.243 19.8327 117.25 21.3048L117.277 28.2311L113.342 28.2486L113.293 15.8941L113.299 15.8875Z" fill="#4E493A"/>
<path d="M132.367 15.0675L133.842 15.061V15.2856H133.231L133.237 16.9191H132.98L132.973 15.2878H132.365V15.0653H132.367V15.0675Z" fill="#4E493A"/>
<path d="M134.174 15.061H134.504L134.893 16.0664C134.97 16.2692 135.083 16.6465 135.083 16.6465H135.087C135.087 16.6465 135.2 16.2692 135.274 16.0642L135.649 15.0544H135.987L135.996 16.9103H135.751L135.747 15.7894C135.747 15.6258 135.76 15.314 135.76 15.314H135.755C135.755 15.314 135.681 15.5931 135.628 15.7392L135.181 16.9169H134.981L134.525 15.7436C134.472 15.5997 134.393 15.3205 134.393 15.3205H134.389C134.389 15.3205 134.406 15.6324 134.406 15.7959L134.41 16.9191H134.18L134.172 15.0632L134.174 15.061Z" fill="#4E493A"/>
<path fill-rule="evenodd" clip-rule="evenodd" d="M18.0908 22.9208L19.6764 26.1222H19.6785V26.1179C20.3489 27.47 20.981 29.9235 18.1589 31.7336C18.1757 32.1505 18.2031 32.6804 18.2328 33.2534C18.2407 33.4057 18.2487 33.5611 18.2568 33.7181C18.2644 33.8695 18.2721 34.0216 18.2797 34.173C18.3256 35.0791 18.3702 35.9587 18.3866 36.4987C18.3908 36.5881 18.3908 36.6645 18.3908 36.7321C18.3918 36.7576 18.3924 36.7859 18.3929 36.8127C18.3934 36.8432 18.394 36.8716 18.3951 36.8913C18.4015 36.9044 18.4164 36.924 18.4398 36.9524C18.4802 36.9916 18.6079 37.0701 18.7016 37.1268C18.891 37.2424 19.123 37.3863 19.3422 37.587C19.9445 38.1409 20.1552 39.0896 19.8445 39.8398C19.5657 40.5137 18.9314 40.9019 18.1269 40.9062C18.0631 40.9062 17.9992 40.904 17.9333 40.8997C17.2075 40.8473 16.3391 40.7558 15.3537 40.6249C14.7386 40.542 14.2342 40.2105 13.898 39.6631C13.6255 39.2204 13.5361 38.7537 13.5063 38.516C13.3688 37.3887 13.2313 35.9937 13.085 34.51C13.0751 34.4093 13.0651 34.3081 13.0551 34.2067C12.9828 33.4608 12.9083 32.7084 12.8338 31.9822C12.4805 31.6921 12.1591 31.3214 11.8782 30.8743C11.768 31.9486 11.6626 33.0765 11.5633 34.1389C11.5475 34.308 11.5318 34.4754 11.5164 34.6406C11.3801 36.1171 11.2503 37.5106 11.1354 38.5269C11.1098 38.7668 11.0247 39.2335 10.7544 39.6784C10.4203 40.2302 9.92011 40.566 9.30503 40.6533C8.32174 40.7928 7.45338 40.8932 6.72762 40.9499C6.66165 40.9586 6.5978 40.9586 6.53395 40.9586C5.72944 40.9608 5.09094 40.5769 4.80787 39.9052C4.49075 39.1572 4.69507 38.2063 5.291 37.648C5.50809 37.4452 5.74008 37.2991 5.92737 37.1835C6.02102 37.1246 6.14872 37.0439 6.18703 37.0069C6.20107 36.9886 6.21128 36.9742 6.21904 36.9632C6.22423 36.9559 6.22832 36.9502 6.23172 36.9458V36.7866C6.23172 36.719 6.23172 36.6427 6.23598 36.5533V36.4922C6.29983 33.4935 6.46797 26.4581 6.68719 23.5946C5.16969 22.2294 4.09701 20.2383 4.0885 18.0531C4.08637 17.4206 4.18427 16.5112 4.33326 15.7916C4.33539 15.7839 4.33751 15.7757 4.33964 15.7676C4.34177 15.7594 4.3439 15.7512 4.34603 15.7436L3.46703 13.9684C2.90728 12.8387 2.89025 11.5803 3.40531 10.4594L0.234102 3.95171C-0.319262 2.79804 0.425652 1.28453 1.94315 0.495059C3.46916 -0.298771 5.11222 -0.0152598 5.68474 1.14059C5.69042 1.15077 5.6942 1.16095 5.69799 1.17112C5.69988 1.17621 5.70177 1.1813 5.7039 1.18639L8.84956 7.64389C8.96024 7.6657 9.06665 7.69405 9.17307 7.72458C9.06027 6.95692 9.16668 6.20453 9.48593 5.559C9.88819 4.7499 10.5948 4.16107 11.4759 3.90155C12.357 3.64203 13.2616 3.75761 14.0193 4.2265C14.7621 4.68666 15.3197 5.46086 15.5836 6.40735C15.8518 7.3691 15.873 9.0658 15.2154 10.2893C16.5222 10.6208 17.6481 11.2096 18.5122 12.023C19.7849 13.2203 20.4617 14.8865 20.4703 16.8427C20.4787 19.2918 19.6764 21.4072 18.0908 22.9208ZM15.475 23.0712C17.4693 22.0462 19.0975 20.1271 19.0847 16.8493V16.8514H19.0804C19.0634 12.6904 15.5623 11.7177 13.9852 11.4909C13.8745 11.5411 13.7575 11.5869 13.6319 11.6239C13.3978 11.6937 13.1679 11.7264 12.9445 11.7264C12.804 11.7264 12.6635 11.7134 12.5273 11.6894L15.2899 17.268C15.3112 16.9256 15.3048 16.5527 15.2707 16.147C15.2388 15.7567 15.5197 15.4121 15.9007 15.3772C16.2817 15.3423 16.618 15.6323 16.652 16.0227C16.7925 17.6627 16.5435 18.9298 15.8943 19.8959C15.7049 20.1751 15.4814 20.4302 15.2239 20.6614C15.4921 20.9776 15.6538 21.3963 15.673 21.8478C15.6815 22.0855 15.6666 22.5478 15.475 23.0712ZM12.3932 5.13153C12.2144 5.13373 12.0314 5.1599 11.8441 5.21442C10.748 5.53719 10.2245 6.63197 10.5735 7.87724C10.8225 8.76703 12.0399 10.6644 13.2701 10.3045C14.4981 9.94469 14.5492 7.67224 14.3002 6.78245C14.0108 5.74873 13.2658 5.12719 12.3932 5.13153ZM5.48255 17.7151C5.47617 17.8394 5.47404 17.9528 5.47404 18.0487L5.47191 18.0509C5.48042 20.1881 6.60418 21.6275 7.5449 22.4606C8.63886 23.4267 10.0478 24.0483 11.1311 24.0439C14.0129 24.0308 14.3172 22.6351 14.2874 21.911C14.2725 21.549 14.0278 21.5141 13.6617 21.6362C13.0083 21.8521 12.3528 21.9525 11.6355 21.9546C9.94778 21.9634 7.33207 20.8817 5.52938 17.7958C5.52512 17.7848 5.50809 17.7565 5.48255 17.7151ZM9.75623 38.3634C9.86903 37.3624 9.99886 35.9753 10.1351 34.5076H10.1308C10.316 32.5143 10.516 30.3618 10.7246 28.6324L8.9347 25.0144C8.6197 24.8879 8.3111 24.7352 8.00888 24.5608C7.82158 27.747 7.67686 33.801 7.61726 36.5205V36.7844C7.61726 37.1988 7.59172 37.4801 7.25545 37.9054C7.08731 38.1191 6.86384 38.2587 6.64675 38.3939L6.62678 38.4065C6.48398 38.4963 6.33717 38.5886 6.22534 38.6948C6.06571 38.8453 5.99761 39.1463 6.07848 39.3404C6.14233 39.493 6.32324 39.5585 6.61908 39.5345C7.30653 39.48 8.1685 39.3796 9.11135 39.2466C9.6115 39.1746 9.72856 38.6054 9.75623 38.3634ZM18.5654 39.288C18.6441 39.0939 18.5739 38.793 18.4121 38.6447V38.6469C18.2951 38.5378 18.1397 38.4419 17.9886 38.3503L17.9704 38.339C17.759 38.2073 17.5411 38.0718 17.3756 37.8661C17.0351 37.443 17.0096 37.1617 17.0053 36.7473C17.0042 36.716 17.0036 36.6822 17.0031 36.646C17.0026 36.6141 17.002 36.5803 17.001 36.5445C16.9819 35.9295 16.9266 34.8456 16.8712 33.7967C16.8543 33.4766 16.8384 33.1623 16.8234 32.8663C16.8157 32.7145 16.8082 32.5675 16.801 32.4271C15.8986 32.7738 15.0536 32.8611 14.2959 32.6975C14.3365 33.0904 14.3755 33.4882 14.4142 33.8838C14.4202 33.9449 14.4262 34.0061 14.4322 34.0671C14.5875 35.6569 14.7344 37.1574 14.8791 38.3437C14.9089 38.5858 15.0302 39.1528 15.5304 39.2204C16.4732 39.3469 17.3352 39.4385 18.0248 39.4865C18.3206 39.5061 18.5036 39.4407 18.5654 39.288ZM4.44394 1.78609C4.24387 1.38263 3.41595 1.24306 2.53908 1.69886C1.66221 2.15466 1.28124 2.92232 1.48131 3.32577C1.68137 3.72923 2.51142 3.86662 3.38829 3.41301C4.26516 2.95721 4.644 2.19173 4.44394 1.78609ZM4.7101 13.3228C4.16312 12.2171 4.52493 11.2859 4.78885 10.8301H4.79097L4.98678 10.4921L2.34766 5.06176C2.87122 5.0465 3.43736 4.90256 3.98647 4.61687C4.53557 4.33336 4.98252 3.95171 5.3039 3.52863L7.94728 8.96767L8.32825 9.00474C8.84331 9.0549 9.79041 9.3057 10.3374 10.4114L14.7005 19.2242C14.0641 20.1554 12.9765 20.5262 11.6548 20.5349H11.6314C10.2778 20.5414 8.21332 19.6255 6.71711 17.063L6.71285 17.0543C6.71216 17.0528 6.69836 17.0297 6.67352 16.9881L6.67228 16.986L6.67225 16.9859C6.54382 16.7706 6.12984 16.0764 5.70403 15.3292L4.7101 13.3228ZM11.2312 25.4593C12.157 25.4549 14.6493 25.3677 16.9713 23.8127V23.8105L18.4335 26.7656C19.3082 28.5343 18.8251 29.821 16.9096 30.8176C14.9898 31.8143 13.6873 31.4522 12.8083 29.677L10.7119 25.4418C10.8545 25.4549 10.9971 25.4593 11.1397 25.4593H11.2312Z" fill="#4E493A"/>
</g>
<defs>
<clipPath id="clip0_2109_23011">
<rect width="136" height="41" fill="white"/>
</clipPath>
</defs>
</svg>
